{"glyphs":{":":{"x_min":0,"x_max":298,"ha":298,"o":""},"$":{"x_min":0,"x_max":454,"ha":454,"o":"m 288 -2 q 283 -4 283 -8 l 285 -60 q 285 -65 282 -68 q 278 -72 273 -72 l 174 -72 q 169 -72 166 -68 q 162 -65 162 -60 l 163 -4 q 163 0 159 1 q 97 19 62 66 q 26 114 26 178 l 26 209 q 26 214 30 218 q 33 221 38 221 l 178 221 q 183 221 186 218 q 190 214 190 209 l 190 186 q 190 162 202 148 q 213 134 231 134 q 249 134 260 148 q 272 161 272 182 q 272 205 254 224 q 236 242 182 281 q 132 317 100 346 q 68 374 45 416 q 22 459 22 515 q 22 584 59 634 q 96 683 160 700 q 164 701 164 705 l 163 769 q 163 774 166 778 q 170 781 175 781 l 272 781 q 277 781 280 778 q 284 774 284 769 l 283 707 q 283 702 287 701 q 354 684 392 634 q 431 584 431 512 l 431 488 q 431 483 428 480 q 424 476 419 476 l 280 476 q 275 476 272 480 q 268 483 268 488 l 268 516 q 268 538 256 552 q 244 566 226 566 q 208 566 197 552 q 186 538 186 515 q 186 490 203 470 q 220 450 272 412 q 335 365 367 336 q 399 307 417 272 q 435 236 435 188 q 435 114 396 64 q 356 13 288 -2 z"},"?":{"x_min":0,"x_max":462,"ha":462,"o":"m 135 241 l 135 265 q 135 303 147 330 q 159 358 176 376 q 193 393 221 416 q 252 441 266 458 q 280 476 280 501 q 280 528 268 544 q 255 559 233 559 q 208 559 194 542 q 179 524 179 496 l 179 485 q 179 474 167 474 l 25 480 q 20 480 16 484 q 13 488 13 493 l 13 496 q 13 559 41 608 q 69 656 120 683 q 171 710 237 710 q 333 710 390 655 q 448 600 448 509 q 448 465 435 433 q 422 401 404 382 q 386 362 357 338 q 328 316 314 298 q 300 280 300 255 l 300 241 q 300 236 296 232 q 293 229 288 229 l 147 229 q 142 229 138 232 q 135 236 135 241 z m 131 83 q 131 122 155 146 q 179 170 217 170 q 255 170 280 146 q 304 122 304 83 q 304 46 280 21 q 255 -4 217 -4 q 180 -4 156 20 q 131 45 131 83 z"},"<":{"x_min":0,"x_max":437,"ha":437,"o":"m 402 51 l 30 218 q 21 223 21 232 l 21 354 q 21 364 30 368 l 402 535 q 406 537 408 537 q 416 537 416 526 l 416 393 q 416 383 407 379 l 188 296 q 182 293 188 290 l 407 207 q 416 203 416 193 l 416 60 q 416 53 412 50 q 408 48 402 51 z"},"'":{"x_min":0,"x_max":188,"ha":188,"o":"m 27 478 l 12 688 l 12 690 q 12 700 23 700 l 164 700 q 178 700 176 688 l 159 477 q 157 466 146 466 l 40 466 q 35 466 32 470 q 28 473 27 478 z"},"=":{"x_min":0,"x_max":437,"ha":437,"o":""},"a":{"x_min":0,"x_max":457,"ha":457,"o":"m 433 358 l 433 12 q 433 7 430 4 q 426 0 421 0 l 279 0 q 274 0 270 4 q 267 7 267 12 l 267 36 q 267 39 265 40 q 263 40 261 37 q 227 -8 155 -8 q 17 -8 17 149 q 17 216 42 251 q 67 286 110 298 q 154 309 222 309 l 262 309 q 267 309 267 314 l 267 338 q 267 358 256 370 q 245 383 228 383 q 215 383 206 376 q 198 368 195 354 q 194 342 183 342 l 37 343 q 25 343 25 355 q 30 434 86 480 q 141 525 228 525 q 320 525 376 479 q 433 433 433 358 z m 267 156 l 267 193 q 267 198 262 198 l 232 198 q 212 198 200 186 q 187 174 187 154 q 187 135 197 125 q 207 115 222 115 q 239 115 253 126 q 267 138 267 156 z"},"L":{"x_min":0,"x_max":437,"ha":437,"o":"m 35 12 l 35 688 q 35 693 38 696 q 42 700 47 700 l 189 700 q 194 700 198 696 q 201 693 201 688 l 201 147 q 201 142 206 142 l 410 142 q 415 142 418 138 q 422 135 422 130 l 422 12 q 422 7 418 4 q 415 0 410 0 l 47 0 q 42 0 38 4 q 35 7 35 12 z"},"3":{"x_min":0,"x_max":446,"ha":446,"o":"m 422 225 q 422 202 420 160 q 416 84 363 38 q 310 -8 224 -8 q 165 -8 119 14 q 73 35 47 74 q 21 113 20 163 q 18 197 18 216 q 18 228 30 228 l 172 228 q 184 228 184 216 q 184 202 186 180 q 188 159 198 147 q 208 135 224 135 q 240 135 250 146 q 261 158 263 178 q 264 200 264 243 q 264 287 262 307 q 261 326 250 338 q 240 349 224 349 q 208 349 190 333 q 186 329 182 329 q 179 329 173 333 l 100 409 q 96 415 96 418 q 96 422 100 426 l 218 553 q 222 559 216 559 l 44 559 q 39 559 36 562 q 32 566 32 571 l 32 688 q 32 693 36 696 q 39 700 44 700 l 409 700 q 414 700 418 696 q 421 693 421 688 l 421 567 q 421 559 415 553 l 307 428 q 303 422 309 422 q 354 419 385 380 q 416 341 419 286 q 422 256 422 225 z"},";":{"x_min":0,"x_max":246,"ha":246,"o":"m 27 398 q 27 437 56 466 q 86 494 123 494 q 160 494 189 466 q 218 437 218 398 q 218 358 191 330 q 164 301 123 301 q 82 301 54 330 q 27 358 27 398 z m 35 -92 l 51 146 q 51 151 55 154 q 59 158 64 158 l 187 158 q 201 158 198 145 l 145 -93 q 143 -104 132 -104 l 46 -104 q 34 -104 35 -92 z"},"J":{"x_min":0,"x_max":462,"ha":462,"o":"m 11 186 l 11 251 q 11 256 14 260 q 18 263 23 263 l 165 263 q 170 263 174 260 q 177 256 177 251 l 177 184 q 177 162 188 148 q 200 134 218 134 q 237 134 249 148 q 261 162 261 184 l 261 688 q 261 693 264 696 q 268 700 273 700 l 415 700 q 420 700 424 696 q 427 693 427 688 l 427 186 q 427 129 401 85 q 375 41 328 16 q 280 -8 218 -8 q 157 -8 110 16 q 63 41 37 85 q 11 129 11 186 z"},"V":{"x_min":0,"x_max":506,"ha":506,"o":"m 161 11 l 19 687 l 18 691 q 18 700 29 700 l 184 700 q 196 700 197 689 l 254 290 q 255 286 258 286 q 260 287 260 290 l 313 689 q 314 700 326 700 l 477 700 q 490 700 487 687 l 344 11 q 342 0 331 0 l 174 0 q 163 0 161 11 z"},"\"":{"x_min":0,"x_max":385,"ha":385,"o":"m 27 477 l 12 687 l 12 689 q 12 699 23 699 l 156 699 q 169 699 167 687 l 152 477 q 151 472 148 468 q 144 465 139 465 l 40 465 q 35 465 32 468 q 28 472 27 477 z m 233 477 l 218 687 l 218 689 q 218 699 229 699 l 362 699 q 375 699 373 687 l 357 477 q 356 472 352 468 q 349 465 344 465 l 246 465 q 241 465 238 468 q 234 472 233 477 z"},"7":{"x_min":0,"x_max":422,"ha":422,"o":"m 76 14 l 237 552 q 239 558 233 558 l 148 558 q 143 558 143 553 l 143 519 q 143 514 140 510 q 136 507 131 507 l 21 507 q 16 507 12 510 q 9 514 9 519 l 10 688 q 10 693 14 696 q 17 700 22 700 l 402 700 q 407 700 410 696 q 414 693 414 688 l 414 565 q 414 561 412 551 l 249 10 q 246 0 236 0 l 86 0 q 80 0 77 4 q 74 8 76 14 z"},"S":{"x_min":0,"x_max":454,"ha":454,"o":"m 26 178 l 26 209 q 26 214 30 218 q 33 221 38 221 l 178 221 q 183 221 186 218 q 190 214 190 209 l 190 186 q 190 162 202 148 q 213 134 231 134 q 249 134 260 148 q 272 161 272 182 q 272 205 254 224 q 236 242 182 281 q 132 317 100 346 q 68 374 45 416 q 22 459 22 515 q 22 572 48 616 q 73 660 120 684 q 166 708 226 708 q 287 708 334 684 q 380 659 406 614 q 431 570 431 512 l 431 488 q 431 483 428 480 q 424 476 419 476 l 280 476 q 275 476 272 480 q 268 483 268 488 l 268 516 q 268 538 256 552 q 244 566 226 566 q 208 566 197 552 q 186 538 186 515 q 186 490 203 470 q 220 450 272 412 q 335 365 367 336 q 399 307 417 272 q 435 236 435 188 q 435 98 378 45 q 322 -8 230 -8 q 169 -8 123 16 q 77 39 52 82 q 26 124 26 178 z"},"}":{"x_min":0,"x_max":370,"ha":370,"o":"m 41 -156 q 36 -156 32 -152 q 29 -149 29 -144 l 29 -25 q 29 -20 32 -16 q 36 -13 41 -13 l 57 -13 q 76 -13 90 4 q 103 21 103 46 l 103 199 q 103 295 161 326 q 165 329 161 332 q 103 363 103 459 l 103 608 q 103 633 90 650 q 76 667 57 667 l 41 667 q 36 667 32 670 q 29 674 29 679 l 29 798 q 29 803 32 806 q 36 810 41 810 l 137 810 q 199 810 234 776 q 269 742 269 683 l 269 483 q 269 401 328 395 q 340 394 340 382 l 340 276 q 340 265 328 263 q 269 257 269 174 l 269 -29 q 269 -88 234 -122 q 199 -156 137 -156 z"},"Z":{"x_min":0,"x_max":419,"ha":419,"o":"m 16 12 l 16 134 q 16 139 20 149 l 222 552 q 223 555 222 556 q 221 558 218 558 l 28 558 q 23 558 20 562 q 16 565 16 570 l 16 688 q 16 693 20 696 q 23 700 28 700 l 388 700 q 393 700 396 696 q 400 693 400 688 l 400 566 q 400 561 396 551 l 192 148 q 191 145 192 144 q 193 142 196 142 l 388 142 q 393 142 396 138 q 400 135 400 130 l 400 12 q 400 7 396 4 q 393 0 388 0 l 28 0 q 23 0 20 4 q 16 7 16 12 z"},"x":{"x_min":0,"x_max":462,"ha":462,"o":"m 15 14 l 127 256 q 128 259 127 262 l 15 503 q 13 507 13 509 q 13 517 24 517 l 178 517 q 189 517 192 508 l 228 416 q 231 409 234 416 l 270 508 q 273 517 284 517 l 438 517 q 445 517 448 514 q 450 510 447 503 l 335 262 q 334 259 335 256 l 447 14 q 449 10 449 8 q 449 0 438 0 l 284 0 q 273 0 270 9 l 234 104 q 233 107 231 107 q 229 107 228 104 l 192 9 q 189 0 178 0 l 24 0 q 17 0 14 4 q 12 7 15 14 z"},")":{"x_min":0,"x_max":343,"ha":343,"o":"m 222 750 q 341 579 341 336 q 341 90 221 -80 q 217 -87 207 -87 l 68 -87 q 61 -87 58 -83 q 56 -79 59 -73 q 101 16 128 114 q 155 211 155 335 q 155 460 128 557 q 102 654 59 743 q 57 747 57 749 q 57 757 68 757 l 208 757 q 218 757 222 750 z"},"&":{"x_min":0,"x_max":624,"ha":624,"o":"m 597 7 q 597 0 586 0 l 432 0 q 423 0 417 7 l 398 30 q 396 34 391 32 q 316 -10 227 -10 q 132 -10 77 36 q 22 83 22 172 q 22 236 49 280 q 76 324 123 359 q 127 362 124 366 q 81 423 68 452 q 55 482 55 519 q 55 604 110 656 q 164 708 253 708 q 313 708 360 684 q 408 659 435 615 q 462 571 462 514 q 462 451 432 408 q 401 364 349 328 q 345 325 348 321 q 352 315 362 303 l 404 250 q 408 246 411 251 q 440 287 457 325 q 462 336 473 330 l 578 270 q 588 263 583 254 q 545 179 506 132 q 503 128 505 125 q 537 88 593 15 q 597 9 597 7 z m 221 513 q 221 498 226 486 q 230 474 249 447 q 252 444 256 446 q 296 478 296 513 q 296 533 285 546 q 274 558 258 558 q 241 558 231 546 q 221 533 221 513 z m 296 146 q 302 150 297 153 l 279 175 l 225 240 q 222 243 218 241 q 189 215 189 187 q 189 164 205 146 q 221 129 253 132 q 272 135 296 146 z"},"_":{"x_min":0,"x_max":437,"ha":437,"o":"m 11 12 l 11 112 q 11 117 14 120 q 18 124 23 124 l 414 124 q 419 124 422 120 q 426 117 426 112 l 426 12 q 426 7 422 4 q 419 0 414 0 l 23 0 q 18 0 14 4 q 11 7 11 12 z"},"v":{"x_min":0,"x_max":456,"ha":456,"o":"m 134 10 l 14 505 l 14 509 q 14 518 25 518 l 180 518 q 191 518 192 507 l 225 258 q 225 255 228 255 q 231 255 231 258 l 264 507 q 265 518 276 518 l 432 516 q 446 516 443 503 l 323 10 q 320 0 309 0 l 148 0 q 137 0 134 10 z"},"O":{"x_min":0,"x_max":479,"ha":479,"o":"m 27 199 l 27 501 q 27 595 84 652 q 142 708 239 708 q 335 708 394 652 q 452 595 452 501 l 452 199 q 452 104 394 48 q 335 -8 239 -8 q 142 -8 84 48 q 27 104 27 199 z m 286 192 l 286 508 q 286 535 274 550 q 261 566 239 566 q 217 566 205 550 q 193 535 193 508 l 193 192 q 193 165 205 150 q 217 134 239 134 q 261 134 274 150 q 286 165 286 192 z"},"(":{"x_min":0,"x_max":343,"ha":343,"o":"m 121 -80 q 2 93 2 335 q 2 580 122 750 q 126 757 136 757 l 275 757 q 282 757 284 753 q 287 749 284 743 q 242 656 215 558 q 188 459 188 335 q 188 211 215 114 q 242 16 284 -73 q 286 -77 286 -79 q 286 -87 275 -87 l 135 -87 q 125 -87 121 -80 z"},"C":{"x_min":0,"x_max":470,"ha":470,"o":"m 27 197 l 27 504 q 27 598 84 653 q 141 708 236 708 q 331 708 388 653 q 446 598 446 504 l 446 495 q 446 490 442 486 q 439 483 434 483 l 292 477 q 280 477 280 489 l 280 516 q 280 539 268 552 q 256 566 236 566 q 217 566 205 552 q 193 539 193 516 l 193 183 q 193 161 205 148 q 217 134 236 134 q 256 134 268 148 q 280 161 280 183 l 280 212 q 280 217 284 220 q 287 224 292 224 l 434 218 q 439 218 442 214 q 446 211 446 206 l 446 197 q 446 104 388 48 q 331 -8 236 -8 q 141 -8 84 48 q 27 104 27 197 z"},"W":{"x_min":0,"x_max":707,"ha":707,"o":"m 154 11 l 18 687 l 17 691 q 17 700 28 700 l 175 700 q 187 700 188 689 l 233 360 q 234 357 236 357 q 238 357 239 360 l 284 689 q 285 700 297 700 l 414 700 q 426 700 427 689 l 477 360 q 478 357 480 357 q 482 357 482 360 l 523 689 q 524 700 535 700 l 679 700 q 692 700 690 687 l 561 11 q 560 0 548 0 l 420 0 q 408 0 407 11 l 357 353 q 356 356 354 356 q 351 356 351 353 l 307 11 q 306 0 295 0 l 167 0 q 156 0 154 11 z"},"A":{"x_min":0,"x_max":508,"ha":508,"o":"m 325 11 l 312 98 q 312 103 306 103 l 198 103 q 192 103 192 98 l 180 11 q 179 0 167 0 l 25 0 q 12 0 15 13 l 160 689 q 162 700 173 700 l 336 700 q 347 700 349 689 l 493 13 l 494 9 q 494 0 483 0 l 338 0 q 326 0 325 11 z m 218 231 l 285 231 q 289 231 289 236 l 253 464 q 252 468 250 468 q 248 468 247 464 l 214 236 q 214 231 218 231 z"},"f":{"x_min":0,"x_max":305,"ha":305,"o":"m 289 505 l 289 414 q 289 409 286 406 q 282 402 277 402 l 229 402 q 224 402 224 397 l 224 12 q 224 7 220 4 q 217 0 212 0 l 71 0 q 66 0 62 4 q 59 7 59 12 l 59 397 q 59 402 54 402 l 27 402 q 22 402 18 406 q 15 409 15 414 l 15 505 q 15 510 18 514 q 22 517 27 517 l 54 517 q 59 517 59 522 l 59 552 q 59 635 102 668 q 146 702 237 702 l 267 701 q 278 701 278 689 l 278 598 q 278 586 268 586 q 247 585 236 572 q 224 559 224 538 l 224 522 q 224 517 229 517 l 277 517 q 282 517 286 514 q 289 510 289 505 z"},"Q":{"x_min":0,"x_max":467,"ha":467,"o":"m 441 493 l 441 207 q 441 136 409 84 q 377 32 320 9 q 316 6 316 3 l 316 -80 q 316 -85 312 -88 q 309 -92 304 -92 l 162 -92 q 157 -92 154 -88 q 150 -85 150 -80 l 150 3 q 150 6 146 9 q 90 32 58 84 q 27 136 27 207 l 27 493 q 27 557 52 606 q 78 654 125 681 q 172 708 233 708 q 295 708 342 681 q 389 654 415 606 q 441 557 441 493 z m 193 189 q 193 165 204 150 q 215 134 233 134 q 252 134 264 150 q 275 165 275 189 l 275 511 q 275 535 264 550 q 252 566 233 566 q 215 566 204 550 q 193 535 193 511 z"},"w":{"x_min":0,"x_max":635,"ha":635,"o":"m 122 11 l 14 505 l 14 509 q 14 518 25 518 l 160 518 q 171 518 172 507 l 205 257 q 205 254 208 254 q 211 254 211 257 l 245 507 q 246 518 258 518 l 378 518 q 390 518 391 507 l 427 257 q 428 253 430 254 q 433 254 433 257 l 466 507 q 467 518 478 518 l 611 516 q 624 516 621 503 l 514 11 q 512 0 501 0 l 363 0 q 351 0 350 11 l 317 225 q 316 229 314 229 q 312 229 311 225 l 280 11 q 279 0 267 0 l 135 0 q 124 0 122 11 z"},"-":{"x_min":0,"x_max":337,"ha":337,"o":"m 21 231 l 21 349 q 21 354 24 358 q 28 361 33 361 l 305 361 q 310 361 314 358 q 317 354 317 349 l 317 231 q 317 226 314 222 q 310 219 305 219 l 33 219 q 28 219 24 222 q 21 226 21 231 z"},"E":{"x_min":0,"x_max":441,"ha":441,"o":"m 407 558 l 206 558 q 201 558 201 553 l 201 427 q 201 422 206 422 l 316 422 q 321 422 324 418 q 328 415 328 410 l 328 291 q 328 286 324 282 q 321 279 316 279 l 206 279 q 201 279 201 274 l 201 147 q 201 142 206 142 l 407 142 q 412 142 416 138 q 419 135 419 130 l 419 12 q 419 7 416 4 q 412 0 407 0 l 47 0 q 42 0 38 4 q 35 7 35 12 l 35 688 q 35 693 38 696 q 42 700 47 700 l 407 700 q 412 700 416 696 q 419 693 419 688 l 419 570 q 419 565 416 562 q 412 558 407 558 z"},"s":{"x_min":0,"x_max":426,"ha":426,"o":"m 18 150 l 18 156 q 18 161 22 164 q 25 168 30 168 l 164 168 q 169 168 172 164 q 176 161 176 156 l 176 154 q 176 136 188 126 q 201 115 216 115 q 230 115 238 124 q 246 132 246 145 q 246 163 229 172 q 212 182 175 194 l 153 201 q 24 245 24 361 q 24 437 75 481 q 126 525 211 525 q 298 525 350 478 q 402 430 402 352 q 402 341 390 341 l 260 341 q 255 341 252 344 q 248 348 248 353 l 248 361 q 248 377 239 386 q 230 396 215 396 q 200 396 192 386 q 183 375 183 361 q 183 339 203 327 q 223 315 259 303 q 303 288 335 272 q 367 255 390 224 q 413 194 413 147 q 413 75 360 34 q 306 -8 217 -8 q 126 -8 72 36 q 18 79 18 150 z"},">":{"x_min":0,"x_max":437,"ha":437,"o":"m 29 49 q 21 49 21 60 l 21 193 q 21 203 30 207 l 249 290 q 255 293 249 296 l 30 379 q 21 383 21 393 l 21 526 q 21 533 25 536 q 29 538 35 535 l 407 368 q 416 364 416 354 l 416 232 q 416 223 407 218 l 35 51 q 31 49 29 49 z"},"l":{"x_min":0,"x_max":219,"ha":219,"o":"m 27 12 l 27 688 q 27 693 30 696 q 34 700 39 700 l 181 700 q 186 700 190 696 q 193 693 193 688 l 193 12 q 193 7 190 4 q 186 0 181 0 l 39 0 q 34 0 30 4 q 27 7 27 12 z"},"8":{"x_min":0,"x_max":446,"ha":446,"o":"m 356 360 q 390 339 406 301 q 424 255 424 205 q 424 157 407 114 q 385 58 336 25 q 287 -8 223 -8 q 159 -8 110 24 q 61 57 38 114 q 23 156 23 205 q 23 260 39 299 q 54 338 90 359 q 96 362 90 366 q 56 388 40 427 q 23 465 23 516 q 23 569 40 606 q 62 656 110 685 q 159 714 223 714 q 285 714 334 686 q 382 659 405 606 q 424 565 424 516 q 424 467 406 428 q 390 390 355 367 q 351 363 356 360 z m 186 500 q 186 482 189 465 q 191 446 200 435 q 210 424 223 424 q 237 424 246 435 q 256 446 258 466 q 260 486 260 499 q 260 518 257 531 q 255 550 246 561 q 237 572 223 572 q 209 572 200 561 q 191 550 189 531 q 186 516 186 500 z m 260 215 q 260 237 257 255 q 256 275 246 286 q 237 298 223 298 q 209 298 200 286 q 190 274 188 254 q 186 232 186 218 q 186 204 188 180 q 189 159 199 146 q 209 134 223 134 q 238 134 248 146 q 257 159 259 180 q 260 191 260 215 z"},"\\":{"x_min":0,"x_max":444,"ha":444,"o":"m 430 9 q 430 0 419 0 l 278 0 q 268 0 265 10 l 32 686 q 31 688 31 691 q 31 700 42 700 l 183 700 q 193 700 196 690 l 429 14 q 430 12 430 9 z"},"e":{"x_min":0,"x_max":446,"ha":446,"o":"m 413 213 l 195 213 q 190 213 190 208 l 190 178 q 190 158 200 146 q 209 134 225 134 q 239 134 248 144 q 257 154 260 169 q 261 180 273 180 l 411 172 q 416 172 420 168 q 423 165 422 159 q 413 -8 225 -8 q 130 -8 77 38 q 24 83 24 165 l 24 352 q 24 430 78 478 q 131 525 225 525 q 319 525 372 478 q 425 431 425 352 l 425 225 q 425 220 422 216 q 418 213 413 213 z m 190 339 l 190 308 q 190 303 195 303 l 254 303 q 259 303 259 308 l 259 339 q 259 358 250 370 q 240 383 225 383 q 209 383 200 371 q 190 359 190 339 z"},"b":{"x_min":0,"x_max":453,"ha":453,"o":"m 429 352 l 429 165 q 429 -8 292 -8 q 234 -8 201 34 q 199 36 197 36 q 195 35 195 32 l 195 12 q 195 7 192 4 q 188 0 183 0 l 41 0 q 36 0 32 4 q 29 7 29 12 l 29 688 q 29 693 32 696 q 36 700 41 700 l 183 700 q 188 700 192 696 q 195 693 195 688 l 195 482 q 195 480 196 480 q 199 480 208 489 q 240 525 292 525 q 429 525 429 352 z m 230 383 q 214 383 204 371 q 195 359 195 339 l 195 178 q 195 158 204 146 q 214 134 230 134 q 245 134 254 146 q 263 158 263 178 l 263 339 q 263 359 254 371 q 245 383 230 383 z"},"%":{"x_min":0,"x_max":761,"ha":761,"o":"m 35 545 q 35 590 56 628 q 78 665 115 686 q 152 708 196 708 q 239 708 276 686 q 313 664 334 626 q 356 589 356 545 q 356 500 334 462 q 313 425 276 403 q 240 381 196 381 q 152 381 115 403 q 78 425 56 462 q 35 500 35 545 z m 139 14 l 503 692 q 507 700 518 700 l 609 700 q 616 700 618 696 q 620 692 617 686 l 253 8 q 249 0 238 0 l 147 0 q 140 0 138 4 q 136 8 139 14 z m 270 545 q 270 578 248 601 q 226 624 196 624 q 165 624 143 601 q 121 578 121 545 q 121 512 143 488 q 165 465 196 465 q 227 465 248 488 q 270 512 270 545 z m 405 156 q 405 200 426 238 q 448 275 485 297 q 522 319 566 319 q 609 319 646 297 q 683 275 704 238 q 726 200 726 156 q 726 111 704 74 q 683 36 646 14 q 610 -8 566 -8 q 522 -8 485 14 q 448 36 426 74 q 405 111 405 156 z m 640 156 q 640 188 618 212 q 597 235 566 235 q 535 235 513 212 q 491 188 491 156 q 491 122 512 99 q 534 76 566 76 q 597 76 618 99 q 640 122 640 156 z"},"m":{"x_min":0,"x_max":685,"ha":685,"o":"m 659 348 l 659 12 q 659 7 656 4 q 652 0 647 0 l 505 0 q 500 0 496 4 q 493 7 493 12 l 493 336 q 493 358 484 370 q 476 383 461 383 q 445 383 436 371 q 427 359 427 337 l 427 12 q 427 7 424 4 q 420 0 415 0 l 273 0 q 268 0 264 4 q 261 7 261 12 l 261 336 q 261 358 252 370 q 244 383 229 383 q 213 383 204 371 q 195 359 195 337 l 195 12 q 195 7 192 4 q 188 0 183 0 l 41 0 q 36 0 32 4 q 29 7 29 12 l 29 505 q 29 510 32 514 q 36 517 41 517 l 183 517 q 188 517 192 514 q 195 510 195 505 l 195 495 q 195 492 197 491 q 199 490 201 492 q 236 525 288 525 q 367 525 401 466 l 403 465 q 407 465 411 471 q 448 525 520 525 q 591 525 625 479 q 659 433 659 348 z"},"#":{"x_min":0,"x_max":626,"ha":626,"o":"m 587 395 l 526 395 q 520 395 520 390 l 509 312 q 509 307 513 307 l 552 307 q 557 307 560 304 q 564 300 564 295 l 564 178 q 564 173 560 170 q 557 166 552 166 l 492 166 q 486 166 486 161 l 469 42 q 468 31 456 31 l 314 31 q 302 31 303 44 l 320 161 q 320 166 316 166 l 255 166 q 249 166 249 161 l 232 42 q 231 31 219 31 l 77 31 q 65 31 66 44 l 83 161 q 83 166 79 166 l 39 166 q 34 166 30 170 q 27 173 27 178 l 27 295 q 27 300 30 304 q 34 307 39 307 l 100 307 q 106 307 106 312 l 117 390 q 117 395 113 395 l 74 395 q 69 395 66 398 q 62 402 62 407 l 62 525 q 62 530 66 534 q 69 537 74 537 l 134 537 q 140 537 140 542 l 157 662 q 158 673 170 673 l 312 672 q 324 672 323 659 l 306 542 q 306 537 310 537 l 371 537 q 377 537 377 542 l 394 662 q 395 673 407 673 l 549 672 q 561 672 560 659 l 543 542 q 543 537 547 537 l 587 537 q 592 537 596 534 q 599 530 599 525 l 599 407 q 599 402 596 398 q 592 395 587 395 z m 343 312 l 354 390 q 354 395 350 395 l 289 395 q 283 395 283 390 l 272 312 q 272 307 276 307 l 337 307 q 343 307 343 312 z"},",":{"x_min":0,"x_max":223,"ha":223,"o":"m 27 -93 l 46 147 q 47 152 50 156 q 54 159 59 159 l 181 159 q 195 159 192 146 l 137 -94 q 134 -105 124 -105 l 39 -105 q 26 -105 27 -93 z"},"n":{"x_min":0,"x_max":455,"ha":455,"o":"m 428 349 l 428 12 q 428 7 424 4 q 421 0 416 0 l 274 0 q 269 0 266 4 q 262 7 262 12 l 262 338 q 262 383 230 383 q 213 383 204 371 q 195 359 195 337 l 195 12 q 195 7 192 4 q 188 0 183 0 l 41 0 q 36 0 32 4 q 29 7 29 12 l 29 505 q 29 510 32 514 q 36 517 41 517 l 183 517 q 188 517 192 514 q 195 510 195 505 l 195 485 q 195 483 197 483 q 201 483 205 489 q 235 525 289 525 q 360 525 394 479 q 428 433 428 349 z"},"h":{"x_min":0,"x_max":455,"ha":455,"o":"m 428 349 l 428 12 q 428 7 424 4 q 421 0 416 0 l 274 0 q 269 0 266 4 q 262 7 262 12 l 262 338 q 262 383 230 383 q 213 383 204 371 q 195 359 195 337 l 195 12 q 195 7 192 4 q 188 0 183 0 l 41 0 q 36 0 32 4 q 29 7 29 12 l 29 688 q 29 693 32 696 q 36 700 41 700 l 183 700 q 188 700 192 696 q 195 693 195 688 l 195 485 q 195 483 197 483 q 201 483 205 489 q 235 525 289 525 q 360 525 394 479 q 428 433 428 349 z"},"z":{"x_min":0,"x_max":377,"ha":377,"o":"m 13 12 l 13 142 q 13 149 18 157 l 155 361 q 157 363 156 365 q 155 367 152 367 l 31 367 q 26 367 22 370 q 19 374 19 379 l 19 505 q 19 510 22 514 q 26 517 31 517 l 345 517 q 350 517 354 514 q 357 510 357 505 l 357 375 q 357 368 352 360 l 206 156 q 204 154 205 152 q 206 150 209 150 l 353 150 q 358 150 362 146 q 365 143 365 138 l 365 12 q 365 7 362 4 q 358 0 353 0 l 25 0 q 20 0 16 4 q 13 7 13 12 z"},"B":{"x_min":0,"x_max":477,"ha":477,"o":"m 249 0 l 47 0 q 42 0 38 4 q 35 7 35 12 l 35 688 q 35 693 38 696 q 42 700 47 700 l 223 700 q 327 700 386 652 q 446 603 446 506 q 446 410 383 365 q 378 362 382 359 q 458 303 458 195 q 458 101 399 50 q 340 0 249 0 z m 201 553 l 201 425 q 201 420 206 420 l 225 420 q 253 420 268 438 q 283 455 283 488 q 283 522 268 540 q 253 558 225 558 l 206 558 q 201 558 201 553 z m 292 220 q 292 257 277 279 q 262 301 237 301 l 206 301 q 201 301 201 296 l 201 148 q 201 143 206 143 l 236 143 q 262 143 277 163 q 292 183 292 220 z"},"K":{"x_min":0,"x_max":505,"ha":505,"o":"m 35 12 l 35 688 q 35 693 38 696 q 42 700 47 700 l 189 700 q 194 700 198 696 q 201 693 201 688 l 201 462 q 201 458 203 458 q 205 458 207 461 l 312 691 q 316 700 326 700 l 476 700 q 483 700 486 696 q 488 693 485 686 l 340 392 q 339 388 339 386 l 491 14 q 492 12 492 8 q 492 0 482 0 l 331 0 q 320 0 317 9 l 227 243 q 226 246 224 246 q 222 246 220 243 l 202 207 q 201 205 201 201 l 201 12 q 201 7 198 4 q 194 0 189 0 l 47 0 q 42 0 38 4 q 35 7 35 12 z"},"R":{"x_min":0,"x_max":481,"ha":481,"o":"m 294 10 l 226 275 q 225 279 221 279 l 206 279 q 201 279 201 274 l 201 12 q 201 7 198 4 q 194 0 189 0 l 47 0 q 42 0 38 4 q 35 7 35 12 l 35 688 q 35 693 38 696 q 42 700 47 700 l 262 700 q 320 700 365 672 q 410 645 434 596 q 459 546 459 483 q 459 427 438 382 q 418 338 381 311 q 379 310 378 308 q 377 307 378 305 l 464 14 l 465 10 q 465 0 454 0 l 308 0 q 297 0 294 10 z m 201 553 l 201 411 q 201 406 206 406 l 234 406 q 261 406 277 426 q 293 446 293 481 q 293 518 277 538 q 261 558 234 558 l 206 558 q 201 558 201 553 z"},"T":{"x_min":0,"x_max":485,"ha":485,"o":"m 464 688 l 464 570 q 464 565 460 562 q 457 558 452 558 l 328 558 q 323 558 323 553 l 323 12 q 323 7 320 4 q 316 0 311 0 l 169 0 q 164 0 160 4 q 157 7 157 12 l 157 553 q 157 558 152 558 l 33 558 q 28 558 24 562 q 21 565 21 570 l 21 688 q 21 693 24 696 q 28 700 33 700 l 452 700 q 457 700 460 696 q 464 693 464 688 z"},"P":{"x_min":0,"x_max":474,"ha":474,"o":"m 458 481 q 458 418 434 370 q 411 323 368 297 q 325 271 269 271 l 204 271 q 199 271 199 266 l 199 12 q 199 7 196 4 q 192 0 187 0 l 45 0 q 40 0 36 4 q 33 7 33 12 l 33 688 q 33 693 36 696 q 40 700 45 700 l 261 700 q 319 700 364 672 q 408 645 433 595 q 458 545 458 481 z m 292 477 q 292 516 276 537 q 259 558 232 558 l 204 558 q 199 558 199 553 l 199 404 q 199 399 204 399 l 232 399 q 259 399 276 420 q 292 440 292 477 z"},"|":{"x_min":0,"x_max":201,"ha":201,"o":"m 17 -68 l 17 748 q 17 753 20 756 q 24 760 29 760 l 171 760 q 176 760 180 756 q 183 753 183 748 l 183 -68 q 183 -73 180 -76 q 176 -80 171 -80 l 29 -80 q 24 -80 20 -76 q 17 -73 17 -68 z"},"t":{"x_min":0,"x_max":299,"ha":299,"o":"m 272 402 l 221 402 q 216 402 216 397 l 216 183 q 216 160 226 151 q 235 142 254 143 l 259 143 q 264 143 268 140 q 271 136 271 131 l 271 12 q 271 7 268 4 q 264 0 259 0 l 214 0 q 136 0 96 24 q 57 48 57 117 l 57 397 q 57 402 52 402 l 20 402 q 15 402 12 406 q 8 409 8 414 l 8 505 q 8 510 12 514 q 15 517 20 517 l 52 517 q 57 517 57 522 l 57 633 q 57 638 60 642 q 64 645 69 645 l 204 645 q 209 645 212 642 q 216 638 216 633 l 216 522 q 216 517 221 517 l 272 517 q 277 517 280 514 q 284 510 284 505 l 284 414 q 284 409 280 406 q 277 402 272 402 z"},"M":{"x_min":0,"x_max":558,"ha":558,"o":"m 376 700 l 515 700 q 520 700 524 696 q 527 693 527 688 l 527 12 q 527 7 524 4 q 520 0 515 0 l 373 0 q 368 0 364 4 q 361 7 361 12 l 361 441 q 361 445 359 446 q 357 446 355 443 l 285 321 q 281 313 279 313 q 277 313 272 321 l 202 443 q 200 446 198 446 q 196 446 196 442 l 196 12 q 196 7 192 4 q 189 0 184 0 l 42 0 q 37 0 34 4 q 30 7 30 12 l 30 688 q 30 693 34 696 q 37 700 42 700 l 182 700 q 192 700 197 692 l 277 547 q 280 543 283 547 l 361 692 q 365 700 376 700 z"},"g":{"x_min":0,"x_max":451,"ha":451,"o":"m 270 517 l 412 517 q 417 517 420 514 q 424 510 424 505 l 424 30 q 424 -44 403 -96 q 382 -148 326 -178 q 271 -209 171 -209 q 155 -209 117 -207 q 105 -206 105 -194 l 105 -75 q 105 -62 118 -64 l 141 -65 q 189 -65 214 -54 q 239 -42 248 -22 q 257 -1 258 32 q 258 36 256 36 q 253 37 251 34 q 220 -6 161 -6 q 91 -6 58 39 q 24 84 24 167 l 24 352 q 24 525 161 525 q 222 525 252 480 q 254 477 256 478 q 258 478 258 481 l 258 505 q 258 510 262 514 q 265 517 270 517 z m 258 180 l 258 339 q 258 359 248 371 q 239 383 223 383 q 208 383 199 371 q 190 359 190 339 l 190 180 q 190 160 199 148 q 208 137 223 137 q 239 137 248 149 q 258 161 258 180 z"},"j":{"x_min":0,"x_max":223,"ha":223,"o":"m 25 650 q 25 689 50 713 q 74 737 112 737 q 150 737 174 713 q 199 689 199 650 q 199 613 174 588 q 150 563 112 563 q 75 563 50 588 q 25 613 25 650 z m -66 -190 l -66 -73 q -66 -66 -62 -64 q -57 -62 -47 -62 q -3 -62 13 -43 q 29 -24 29 15 l 29 505 q 29 510 32 514 q 36 517 41 517 l 183 517 q 188 517 192 514 q 195 510 195 505 l 195 15 q 195 -68 182 -112 q 168 -156 114 -180 q 61 -204 -54 -202 q -66 -202 -66 -190 z"},"i":{"x_min":0,"x_max":223,"ha":223,"o":"m 24 650 q 24 689 48 713 q 72 737 110 737 q 148 737 172 713 q 197 689 197 650 q 197 613 172 588 q 148 563 110 563 q 73 563 48 588 q 24 612 24 650 z m 29 12 l 29 505 q 29 510 32 514 q 36 517 41 517 l 183 517 q 188 517 192 514 q 195 510 195 505 l 195 12 q 195 7 192 4 q 188 0 183 0 l 41 0 q 36 0 32 4 q 29 7 29 12 z"},"y":{"x_min":0,"x_max":442,"ha":442,"o":"m 30 -187 l 30 -75 q 30 -63 39 -63 q 93 -63 116 -51 q 139 -39 138 -3 l 137 3 l 11 505 l 11 509 q 11 518 22 518 l 175 518 q 186 518 187 507 l 219 244 q 219 241 222 242 q 225 242 225 245 l 255 507 q 256 518 267 518 l 420 516 q 434 516 431 503 l 302 -10 q 281 -85 256 -124 q 232 -162 183 -180 q 134 -199 42 -199 l 36 -199 q 30 -199 30 -187 z"},"@":{"x_min":0,"x_max":760,"ha":760,"o":"m 736 372 q 736 349 733 323 q 720 222 665 166 q 610 110 529 110 q 460 110 422 150 q 418 153 415 149 q 399 127 376 119 q 353 111 333 111 q 275 111 248 146 q 221 182 221 226 q 221 238 225 268 l 228 302 q 231 340 236 358 q 246 422 275 450 q 304 479 356 479 q 388 479 408 455 q 413 449 414 456 l 415 461 q 416 472 427 472 l 513 472 q 525 472 524 459 l 502 295 q 500 279 500 274 q 500 244 513 230 q 526 215 545 215 q 574 215 592 247 q 610 279 616 327 q 618 340 618 364 q 618 425 592 471 q 567 517 522 542 q 476 566 417 566 q 349 566 290 530 q 231 495 192 432 q 152 369 142 290 q 139 268 139 248 q 139 178 168 130 q 197 82 242 58 q 287 35 334 35 q 368 35 395 46 q 422 56 448 74 q 452 77 455 77 q 461 77 464 71 l 503 2 q 505 0 505 -5 q 505 -11 499 -14 q 414 -70 315 -70 q 234 -70 168 -32 q 101 5 62 75 q 24 145 24 238 q 24 255 28 295 q 41 403 98 488 q 155 573 242 621 q 328 669 427 669 q 516 669 586 632 q 657 594 696 526 q 736 459 736 372 z m 384 233 l 392 295 q 395 327 399 351 q 401 366 395 374 q 389 383 376 383 q 364 383 356 374 q 347 366 345 351 l 337 289 l 330 233 q 328 218 334 209 q 341 200 354 200 q 366 200 374 209 q 382 218 384 233 z"},".":{"x_min":0,"x_max":235,"ha":235,"o":""},"p":{"x_min":0,"x_max":456,"ha":456,"o":"m 432 352 l 432 165 q 432 -8 295 -8 q 237 -8 204 36 q 202 39 200 38 q 198 38 198 35 l 198 -171 q 198 -176 194 -180 q 191 -183 186 -183 l 44 -183 q 39 -183 36 -180 q 32 -176 32 -171 l 32 505 q 32 510 36 514 q 39 517 44 517 l 186 517 q 191 517 194 514 q 198 510 198 505 l 198 485 q 198 483 200 483 q 204 483 210 491 q 243 525 295 525 q 432 525 432 352 z m 233 383 q 217 383 208 371 q 198 359 198 339 l 198 178 q 198 158 208 146 q 217 134 233 134 q 248 134 257 146 q 266 158 266 178 l 266 339 q 266 359 257 371 q 248 383 233 383 z"},"X":{"x_min":0,"x_max":490,"ha":490,"o":"m 22 14 l 156 347 q 157 350 156 353 l 22 686 q 21 688 21 692 q 21 700 31 700 l 176 700 q 186 700 189 690 l 243 525 q 244 521 246 521 q 248 521 249 525 l 302 690 q 305 700 315 700 l 459 700 q 466 700 468 696 q 470 692 468 686 l 334 353 q 333 350 334 347 l 468 14 q 469 12 469 8 q 469 0 459 0 l 316 0 q 306 0 303 10 l 249 174 q 248 178 246 178 q 244 177 243 174 l 188 10 q 185 0 175 0 l 31 0 q 24 0 22 4 q 20 8 22 14 z"},"*":{"x_min":0,"x_max":362,"ha":362,"o":"m 135 408 l 136 479 q 136 482 134 484 q 132 485 130 483 l 67 447 q 63 445 61 445 q 56 445 51 452 l 17 513 q 15 517 15 519 q 15 525 21 529 l 90 568 q 95 571 90 574 l 22 611 q 12 617 17 628 l 51 692 q 54 697 58 698 q 63 700 68 697 l 130 659 q 132 657 134 658 q 136 659 136 662 l 135 733 q 135 738 138 742 q 142 745 147 745 l 215 745 q 220 745 224 742 q 227 738 227 733 l 227 662 q 227 659 229 658 q 231 657 233 659 l 294 697 q 298 699 300 699 q 307 699 311 692 l 345 628 q 347 622 347 621 q 347 616 341 611 l 273 574 q 271 573 271 571 q 271 569 273 567 l 341 529 q 350 523 345 513 l 311 448 q 308 443 304 442 q 299 441 294 444 l 233 482 q 231 484 229 483 q 227 482 227 479 l 227 408 q 227 403 224 400 q 220 396 215 396 l 147 396 q 142 396 138 400 q 135 403 135 408 z"},"Y":{"x_min":0,"x_max":492,"ha":492,"o":"m 162 14 l 162 260 l 161 266 l 21 686 q 20 688 20 691 q 20 700 30 700 l 180 700 q 190 700 193 689 l 243 469 q 244 465 246 465 q 248 465 249 469 l 299 689 q 302 700 312 700 l 462 700 q 468 700 470 696 q 473 693 471 686 l 329 266 l 328 260 l 328 14 q 328 9 324 6 q 321 2 316 2 l 174 2 q 169 2 166 6 q 162 9 162 14 z"},"c":{"x_min":0,"x_max":445,"ha":445,"o":"m 24 165 l 24 352 q 24 430 78 478 q 131 525 225 525 q 319 525 372 478 q 425 431 425 355 l 425 333 q 425 328 422 324 q 418 321 413 321 l 271 315 q 259 315 259 327 l 259 342 q 259 359 250 371 q 240 383 225 383 q 209 383 200 371 q 190 359 190 339 l 190 178 q 190 158 200 146 q 209 134 225 134 q 240 134 250 146 q 259 158 259 176 l 259 191 q 259 196 262 200 q 266 203 271 203 l 413 202 q 418 202 422 198 q 425 195 425 190 l 425 163 q 425 82 372 37 q 320 -8 225 -8 q 130 -8 77 38 q 24 83 24 165 z"},"!":{"x_min":0,"x_max":289,"ha":289,"o":"m 78 256 l 60 688 q 60 700 72 700 l 214 700 q 226 700 226 688 l 209 256 q 209 251 206 248 q 202 244 197 244 l 90 244 q 85 244 82 248 q 78 251 78 256 z m 58 88 q 58 126 82 150 q 107 174 145 174 q 183 174 207 150 q 231 126 231 88 q 231 50 206 26 q 182 1 145 1 q 107 1 82 26 q 58 50 58 88 z"},"/":{"x_min":0,"x_max":444,"ha":444,"o":"m 16 14 l 249 690 q 252 700 262 700 l 403 700 q 409 700 412 696 q 415 693 413 686 l 180 10 q 177 0 167 0 l 26 0 q 20 0 17 4 q 14 7 16 14 z"},"[":{"x_min":0,"x_max":360,"ha":360,"o":"m 29 -144 l 29 798 q 29 803 32 806 q 36 810 41 810 l 264 810 q 269 810 272 806 q 276 803 276 798 l 276 679 q 276 674 272 670 q 269 667 264 667 l 200 667 q 195 667 195 662 l 195 -8 q 195 -13 200 -13 l 264 -13 q 269 -13 272 -16 q 276 -20 276 -25 l 276 -144 q 276 -149 272 -152 q 269 -156 264 -156 l 41 -156 q 36 -156 32 -152 q 29 -149 29 -144 z"},"6":{"x_min":0,"x_max":451,"ha":451,"o":"m 432 220 l 432 165 q 431 83 376 38 q 321 -8 229 -8 q 143 -8 90 34 q 36 76 29 158 q 26 179 26 205 l 24 527 q 23 610 78 659 q 134 708 226 708 q 313 708 368 659 q 423 610 423 527 l 423 490 q 423 485 420 482 q 416 478 411 478 l 269 478 q 264 478 260 482 q 257 485 257 490 l 257 516 q 257 536 248 549 q 238 562 226 562 q 210 562 200 549 q 191 536 191 516 l 191 418 q 191 415 193 414 q 195 414 197 416 q 233 445 274 445 q 345 445 387 398 q 429 350 431 268 q 432 253 432 220 z m 264 232 l 262 285 q 260 303 251 314 q 242 325 228 325 q 213 325 204 314 q 194 303 192 284 q 191 259 191 232 q 191 201 192 176 q 194 156 203 145 q 212 134 228 134 q 243 134 252 146 q 261 157 263 177 q 264 202 264 232 z"},"r":{"x_min":0,"x_max":336,"ha":336,"o":"m 324 513 q 331 507 330 498 l 307 357 q 306 346 293 349 q 279 353 268 353 q 251 353 236 347 q 218 341 206 322 q 195 303 195 280 l 195 13 q 195 8 192 4 q 188 1 183 1 l 41 1 q 36 1 32 4 q 29 8 29 13 l 29 505 q 29 510 32 514 q 36 517 41 517 l 183 517 q 188 517 192 514 q 195 510 195 505 l 195 473 q 195 469 196 468 q 198 468 200 471 q 227 524 281 524 q 306 524 324 513 z"},"2":{"x_min":0,"x_max":451,"ha":451,"o":"m 226 142 l 426 142 q 431 142 434 138 q 438 135 438 130 l 438 12 q 438 7 434 4 q 431 0 426 0 l 34 0 q 29 0 26 4 q 22 7 22 12 l 22 134 q 22 141 27 149 q 24 145 79 210 q 117 255 153 300 q 189 344 212 378 q 262 455 262 510 q 262 538 252 552 q 241 566 224 566 q 207 566 196 552 q 186 538 187 516 l 187 473 q 187 468 184 464 q 180 461 175 461 l 31 461 q 26 461 22 464 q 19 468 19 473 l 19 523 q 24 606 83 657 q 142 708 232 708 q 290 708 335 683 q 380 658 405 613 q 430 568 430 509 q 430 456 414 410 q 397 365 360 313 q 330 270 263 195 l 223 148 q 221 146 222 144 q 223 142 226 142 z"},"{":{"x_min":0,"x_max":370,"ha":370,"o":"m 101 -29 l 101 174 q 101 257 41 263 q 29 265 29 276 l 29 382 q 29 394 41 395 q 101 401 101 483 l 101 683 q 101 742 136 776 q 171 810 233 810 l 328 810 q 333 810 336 806 q 340 803 340 798 l 340 679 q 340 674 336 670 q 333 667 328 667 l 313 667 q 294 667 280 650 q 267 633 267 608 l 267 459 q 267 362 208 332 q 203 329 208 326 q 267 296 267 199 l 267 46 q 267 21 280 4 q 294 -13 313 -13 l 328 -13 q 333 -13 336 -16 q 340 -20 340 -25 l 340 -144 q 340 -149 336 -152 q 333 -156 328 -156 l 233 -156 q 171 -156 136 -122 q 101 -88 101 -29 z"},"9":{"x_min":0,"x_max":446,"ha":446,"o":"m 220 -8 q 133 -8 78 42 q 23 91 23 174 l 23 210 q 23 215 26 218 q 30 222 35 222 l 177 222 q 182 222 186 218 q 189 215 189 210 l 189 185 q 189 165 198 152 q 208 138 220 138 q 236 138 246 151 q 255 164 255 185 l 255 281 q 255 284 253 284 q 251 285 249 283 q 214 255 172 255 q 101 255 59 303 q 17 351 15 432 q 14 447 14 481 q 14 517 15 535 q 16 617 71 662 q 126 708 218 708 q 304 708 357 666 q 410 625 418 542 q 421 500 421 495 l 422 174 q 423 91 368 42 q 312 -8 220 -8 z m 254 416 l 255 468 q 255 499 254 524 q 252 544 243 556 q 234 567 219 567 q 204 567 194 555 q 184 543 183 523 l 182 468 l 184 416 q 186 397 195 386 q 204 376 219 376 q 234 376 243 386 q 252 397 254 416 z"}," ":{"x_min":0,"x_max":200,"ha":200,"o":""},"I":{"x_min":0,"x_max":235,"ha":235,"o":"m 35 12 l 35 688 q 35 693 38 696 q 42 700 47 700 l 189 700 q 194 700 198 696 q 201 693 201 688 l 201 12 q 201 7 198 4 q 194 0 189 0 l 47 0 q 42 0 38 4 q 35 7 35 12 z"},"H":{"x_min":0,"x_max":483,"ha":483,"o":"m 295 700 l 437 700 q 442 700 446 696 q 449 693 449 688 l 449 12 q 449 7 446 4 q 442 0 437 0 l 295 0 q 290 0 286 4 q 283 7 283 12 l 283 274 q 283 279 278 279 l 206 279 q 201 279 201 274 l 201 12 q 201 7 198 4 q 194 0 189 0 l 47 0 q 42 0 38 4 q 35 7 35 12 l 35 688 q 35 693 38 696 q 42 700 47 700 l 189 700 q 194 700 198 696 q 201 693 201 688 l 201 427 q 201 422 206 422 l 278 422 q 283 422 283 427 l 283 688 q 283 693 286 696 q 290 700 295 700 z"},"4":{"x_min":0,"x_max":508,"ha":508,"o":"m 498 310 l 498 184 q 498 179 494 176 q 491 172 486 172 l 453 172 q 448 172 448 167 l 448 12 q 448 7 444 4 q 441 0 436 0 l 294 0 q 289 0 286 4 q 282 7 282 12 l 282 167 q 282 172 277 172 l 23 172 q 18 172 14 176 q 11 179 11 184 l 11 284 q 11 292 13 298 l 141 690 q 144 700 154 700 l 306 700 q 312 700 315 696 q 318 692 316 686 l 205 328 q 204 322 209 322 l 277 322 q 282 322 282 327 l 282 413 q 282 418 286 422 q 289 425 294 425 l 436 425 q 441 425 444 422 q 448 418 448 413 l 448 327 q 448 322 453 322 l 486 322 q 491 322 494 318 q 498 315 498 310 z"},"~":{"x_min":0,"x_max":500,"ha":500,"o":"m 255 216 q 249 220 234 230 q 219 239 208 244 q 196 248 185 248 q 151 248 123 213 q 116 203 107 209 l 30 256 q 21 262 24 272 q 41 323 80 357 q 120 391 169 391 q 191 391 210 384 q 228 377 247 365 q 253 361 268 352 q 284 343 296 338 q 308 334 319 334 q 349 334 371 369 q 378 379 387 373 l 469 322 q 478 316 474 306 q 450 257 412 224 q 375 191 330 191 q 309 191 292 198 q 276 204 255 216 z"},"D":{"x_min":0,"x_max":480,"ha":480,"o":"m 35 12 l 35 688 q 35 693 38 696 q 42 700 47 700 l 238 700 q 334 700 392 646 q 450 592 450 503 l 450 197 q 450 108 392 54 q 334 0 238 0 l 47 0 q 42 0 38 4 q 35 7 35 12 z m 206 142 l 234 143 q 255 144 269 162 q 283 179 284 208 l 284 492 q 284 522 270 540 q 256 558 233 558 l 206 558 q 201 558 201 553 l 201 147 q 201 142 206 142 z"},"^":{"x_min":0,"x_max":432,"ha":432,"o":"m 25 308 l 143 690 q 146 700 156 700 l 273 700 q 283 700 286 690 l 407 308 q 408 306 408 303 q 408 294 397 294 l 283 294 q 272 294 269 304 l 219 509 q 218 512 216 512 q 214 512 213 509 l 163 304 q 160 294 149 294 l 35 294 q 29 294 26 298 q 23 302 25 308 z"},"0":{"x_min":0,"x_max":456,"ha":456,"o":"m 23 199 l 23 501 q 23 596 79 654 q 135 712 228 712 q 321 712 377 654 q 433 596 433 501 l 433 199 q 433 104 377 46 q 321 -12 228 -12 q 135 -12 79 46 q 23 104 23 199 z m 267 189 l 267 511 q 267 537 256 553 q 246 569 228 569 q 210 569 200 553 q 189 537 189 511 l 189 189 q 189 163 200 147 q 210 131 228 131 q 246 131 256 147 q 267 163 267 189 z"},"F":{"x_min":0,"x_max":427,"ha":427,"o":"m 407 558 l 206 558 q 201 558 201 553 l 201 427 q 201 422 206 422 l 316 422 q 321 422 324 418 q 328 415 328 410 l 328 291 q 328 286 324 282 q 321 279 316 279 l 206 279 q 201 279 201 274 l 201 12 q 201 7 198 4 q 194 0 189 0 l 47 0 q 42 0 38 4 q 35 7 35 12 l 35 688 q 35 693 38 696 q 42 700 47 700 l 407 700 q 412 700 416 696 q 419 693 419 688 l 419 570 q 419 565 416 562 q 412 558 407 558 z"},"`":{"x_min":0,"x_max":234,"ha":234,"o":""},"k":{"x_min":0,"x_max":465,"ha":465,"o":"m 29 12 l 29 688 q 29 693 32 696 q 36 700 41 700 l 183 700 q 188 700 192 696 q 195 693 195 688 l 195 382 q 195 378 197 378 q 199 377 201 380 l 268 508 q 273 517 282 517 l 428 517 q 435 517 438 514 q 440 510 436 503 l 325 324 q 323 320 324 317 l 446 14 q 447 12 447 8 q 447 0 437 0 l 291 0 q 281 0 278 10 l 223 181 q 222 185 220 185 q 218 185 216 182 l 197 147 q 195 143 195 141 l 195 12 q 195 7 192 4 q 188 0 183 0 l 41 0 q 36 0 32 4 q 29 7 29 12 z"},"u":{"x_min":0,"x_max":455,"ha":455,"o":"m 272 517 l 414 517 q 419 517 422 514 q 426 510 426 505 l 426 12 q 426 7 422 4 q 419 0 414 0 l 272 0 q 267 0 264 4 q 260 7 260 12 l 260 25 q 260 28 258 28 q 256 29 254 26 q 239 7 218 0 q 196 -8 167 -8 q 107 -8 67 29 q 27 66 27 143 l 27 505 q 27 510 30 514 q 34 517 39 517 l 181 517 q 186 517 190 514 q 193 510 193 505 l 193 180 q 193 135 225 135 q 242 135 251 147 q 260 159 260 181 l 260 505 q 260 510 264 514 q 267 517 272 517 z"},"]":{"x_min":0,"x_max":360,"ha":360,"o":"m 319 -156 l 96 -156 q 91 -156 88 -152 q 84 -149 84 -144 l 84 -25 q 84 -20 88 -16 q 91 -13 96 -13 l 160 -13 q 165 -13 165 -8 l 165 662 q 165 667 160 667 l 96 667 q 91 667 88 670 q 84 674 84 679 l 84 798 q 84 803 88 806 q 91 810 96 810 l 319 810 q 324 810 328 806 q 331 803 331 798 l 331 -144 q 331 -149 328 -152 q 324 -156 319 -156 z"},"U":{"x_min":0,"x_max":480,"ha":480,"o":"m 32 204 l 32 688 q 32 693 36 696 q 39 700 44 700 l 186 700 q 191 700 194 696 q 198 693 198 688 l 198 188 q 198 164 210 149 q 221 134 240 134 q 259 134 270 149 q 282 164 282 188 l 282 688 q 282 693 286 696 q 289 700 294 700 l 436 700 q 441 700 444 696 q 448 693 448 688 l 448 204 q 448 141 422 93 q 396 45 349 18 q 302 -8 240 -8 q 178 -8 131 18 q 84 45 58 93 q 32 141 32 204 z"},"o":{"x_min":0,"x_max":452,"ha":452,"o":"m 24 165 l 24 352 q 24 430 78 478 q 131 525 226 525 q 321 525 374 478 q 428 431 428 352 l 428 165 q 428 84 375 38 q 322 -8 226 -8 q 130 -8 77 38 q 24 84 24 165 z m 262 179 l 262 339 q 262 358 252 370 q 242 383 226 383 q 210 383 200 370 q 190 358 190 339 l 190 179 q 190 159 200 147 q 210 135 226 135 q 242 135 252 147 q 262 159 262 179 z"},"N":{"x_min":0,"x_max":522,"ha":522,"o":"m 335 700 l 475 700 q 480 700 484 696 q 487 693 487 688 l 487 12 q 487 7 484 4 q 480 0 475 0 l 316 0 q 305 0 302 10 l 203 358 q 202 361 200 362 q 197 362 197 358 l 199 12 q 199 7 196 4 q 192 0 187 0 l 47 0 q 42 0 38 4 q 35 7 35 12 l 35 688 q 35 693 38 696 q 42 700 47 700 l 204 700 q 215 700 218 690 l 318 340 q 319 337 322 337 q 324 337 324 341 l 323 688 q 323 693 326 696 q 330 700 335 700 z"},"+":{"x_min":0,"x_max":437,"ha":437,"o":"m 416 358 l 416 258 q 416 253 412 250 q 409 246 404 246 l 286 246 q 281 246 281 241 l 281 123 q 281 118 278 114 q 274 111 269 111 l 168 111 q 163 111 160 114 q 156 118 156 123 l 156 241 q 156 246 151 246 l 33 246 q 28 246 24 250 q 21 253 21 258 l 21 358 q 21 363 24 366 q 28 370 33 370 l 151 370 q 156 370 156 375 l 156 494 q 156 499 160 502 q 163 506 168 506 l 269 506 q 274 506 278 502 q 281 499 281 494 l 281 375 q 281 370 286 370 l 404 370 q 409 370 412 366 q 416 363 416 358 z"},"G":{"x_min":0,"x_max":473,"ha":473,"o":"m 27 189 l 27 512 q 27 602 84 655 q 141 708 236 708 q 331 708 388 654 q 446 600 446 510 l 446 473 q 446 468 442 464 q 439 461 434 461 l 292 461 q 287 461 284 464 q 280 468 280 473 l 280 512 q 280 536 268 551 q 256 566 236 566 q 217 566 205 551 q 193 536 193 512 l 193 188 q 193 164 205 149 q 217 134 236 134 q 256 134 268 149 q 280 164 280 188 l 280 252 q 280 257 275 257 l 249 257 q 244 257 240 260 q 237 264 237 269 l 237 375 q 237 380 240 384 q 244 387 249 387 l 434 387 q 439 387 442 384 q 446 380 446 375 l 446 189 q 446 99 388 46 q 331 -8 236 -8 q 141 -8 84 46 q 27 99 27 189 z"},"q":{"x_min":0,"x_max":456,"ha":456,"o":"m 270 517 l 412 517 q 417 517 420 514 q 424 510 424 505 l 424 -171 q 424 -176 420 -180 q 417 -183 412 -183 l 270 -183 q 265 -183 262 -180 q 258 -176 258 -171 l 258 35 q 258 38 256 38 q 254 39 252 36 q 219 -8 161 -8 q 24 -8 24 165 l 24 352 q 24 525 161 525 q 219 525 252 483 q 254 481 256 482 q 258 482 258 485 l 258 505 q 258 510 262 514 q 265 517 270 517 z m 258 178 l 258 339 q 258 359 248 371 q 239 383 223 383 q 208 383 199 371 q 190 359 190 339 l 190 178 q 190 158 199 146 q 208 134 223 134 q 239 134 248 146 q 258 158 258 178 z"},"d":{"x_min":0,"x_max":453,"ha":453,"o":"m 270 700 l 412 700 q 417 700 420 696 q 424 693 424 688 l 424 12 q 424 7 420 4 q 417 0 412 0 l 270 0 q 265 0 262 4 q 258 7 258 12 l 258 32 q 258 35 256 36 q 254 36 252 34 q 219 -8 161 -8 q 24 -8 24 165 l 24 352 q 24 525 161 525 q 219 525 252 481 q 254 478 256 478 q 258 479 258 482 l 258 688 q 258 693 262 696 q 265 700 270 700 z m 258 178 l 258 339 q 258 359 248 371 q 239 383 223 383 q 208 383 199 371 q 190 359 190 339 l 190 178 q 190 158 199 146 q 208 134 223 134 q 239 134 248 146 q 258 158 258 178 z"},"1":{"x_min":0,"x_max":294,"ha":294,"o":"m 109 700 l 255 700 q 260 700 264 696 q 267 693 267 688 l 267 12 q 267 7 264 4 q 260 0 255 0 l 113 0 q 108 0 104 4 q 101 7 101 12 l 101 539 q 101 544 96 544 l 22 540 q 10 540 10 551 l 8 657 q 8 667 18 670 l 94 697 q 102 700 109 700 z"},"5":{"x_min":0,"x_max":450,"ha":450,"o":"m 431 220 q 431 182 430 163 q 429 83 374 38 q 319 -8 227 -8 q 142 -8 90 34 q 37 75 27 158 l 25 186 q 25 198 37 198 l 179 198 q 190 198 191 189 l 191 183 l 193 172 q 198 134 227 134 q 243 134 252 144 q 262 155 264 175 q 265 189 265 220 q 265 248 263 259 q 261 277 252 288 q 242 299 227 299 q 214 299 204 292 q 195 286 192 275 q 189 264 179 264 l 36 264 q 31 264 28 268 q 24 271 24 276 l 24 688 q 24 693 28 696 q 31 700 36 700 l 415 700 q 420 700 424 696 q 427 693 427 688 l 427 570 q 427 565 424 562 q 420 558 415 558 l 195 558 q 190 558 190 553 l 190 412 q 190 409 192 408 q 194 408 196 410 q 231 442 280 442 q 348 442 388 396 q 428 350 429 269 q 431 254 431 220 z"}}}
